<?xml version="1.0" encoding="UTF-8" standalone="no"?>
<svg
   height="403.84845"
   width="389.93317"
   inkscape:version="1.1 (c4e8f9e, 2021-05-24)"
   sodipodi:docname="user.svg"
   xml:space="preserve"
   viewBox="0 0 389.93317 403.84845"
   y="0px"
   x="0px"
   id="Layer_1"
   version="1.1"
   xmlns:inkscape="http://www.inkscape.org/namespaces/inkscape"
   xmlns:sodipodi="http://sodipodi.sourceforge.net/DTD/sodipodi-0.dtd"
   xmlns="http://www.w3.org/2000/svg"
   xmlns:svg="http://www.w3.org/2000/svg"
   xmlns:rdf="http://www.w3.org/1999/02/22-rdf-syntax-ns#"
   xmlns:cc="http://creativecommons.org/ns#"
   xmlns:dc="http://purl.org/dc/elements/1.1/"><metadata
   id="metadata872"><rdf:RDF><cc:Work
       rdf:about=""><dc:format>image/svg+xml</dc:format><dc:type
         rdf:resource="http://purl.org/dc/dcmitype/StillImage" /></cc:Work></rdf:RDF></metadata><defs
   id="defs870" /><sodipodi:namedview
   fit-margin-bottom="0"
   fit-margin-right="0"
   fit-margin-left="0"
   fit-margin-top="0"
   inkscape:current-layer="g865"
   inkscape:window-maximized="0"
   inkscape:window-y="25"
   inkscape:window-x="0"
   inkscape:cy="98.416876"
   inkscape:cx="121.82882"
   inkscape:zoom="1.1532575"
   showgrid="false"
   id="namedview868"
   inkscape:window-height="937"
   inkscape:window-width="1296"
   inkscape:pageshadow="2"
   inkscape:pageopacity="0"
   guidetolerance="10"
   gridtolerance="10"
   objecttolerance="10"
   borderopacity="1"
   bordercolor="#666666"
   pagecolor="#ffffff"
   inkscape:pagecheckerboard="0" />
<style
   id="style845"
   type="text/css">
	.st0{fill:#FFFFFF;stroke:#FFFFFF;stroke-miterlimit:10;}
	.st1{fill:none;}
	.st2{fill:none;stroke:#104667;stroke-miterlimit:10;}
	.st3{fill:#104667;stroke:#104667;stroke-miterlimit:10;}
</style>

<g
   style="stroke-width:1.31651;fill:#808080"
   transform="matrix(3.8518233,0,0,3.9860084,-153.46336,-156.01932)"
   id="g865">
	<path
   style="stroke-width:1.31651;fill:#808080"
   id="path849"
   d="m 76.7,87.1 v 0 c -11.6,4.5 -21.3,14 -27.8,23.8 6.5,-9.8 16.3,-19.3 27.8,-23.8 z"
   class="st1" />
	<path
   style="stroke-width:1.31651;fill:#808080"
   id="path851"
   d="M 40.9,133.8 Z"
   class="st2" />
	<path
   style="stroke-width:1.31651;fill:#808080"
   id="path853"
   d="M 40.9,133.8 Z"
   class="st3" />
	<path
   style="stroke-width:1.31651;fill:#808080;stroke:#808080;stroke-opacity:1"
   id="path855"
   d="m 76.9,86.9 c -0.1,0 -0.1,0 -0.3,0.1 0,0 0,0 0.1,0 -11.5,4.6 -21.3,14.1 -27.8,23.9 -5.7,8.6 -8.7,17.3 -8,22.8 h 99.3 c 1.4,-11.8 -14.6,-38 -36,-46.5 7.6,-4.4 12.6,-12.5 12.6,-21.9 -0.2,-14.2 -12,-25.5 -26.3,-25.5 -8.9,0 -17,4.3 -21.8,11.1 -2.8,4 -4.5,9 -4.5,14.2 0.1,9.1 5,17.3 12.7,21.8 z"
   class="st3" />
	<path
   style="stroke-width:1.31651;fill:#808080;stroke:#808080;stroke-opacity:1"
   id="path857"
   d="m 76.6,87.1 c 0.1,0 0.1,0 0.3,-0.1 -7.6,-4.6 -12.6,-12.8 -12.6,-21.9 0,-5.3 1.7,-10.2 4.5,-14.2 -2.8,4 -4.7,9 -4.7,14.3 0.1,9.1 5.1,17.3 12.5,21.9 z"
   class="st3" />
	<path
   style="stroke-width:1.31651;fill:#808080;stroke:#808080;stroke-opacity:1"
   id="path859"
   d="m 48.9,110.9 c -5.7,8.6 -8.8,17.3 -8.2,22.9 h 0.1 v 0 -0.1 c -0.7,-5.6 2.4,-14.4 8.1,-22.8 z"
   class="st3" />
	<path
   style="stroke-width:1.31651;fill:#808080"
   id="path861"
   d="m 40.9,133.8 h 99.3 v -0.1 z"
   class="st3" />
	<path
   style="stroke-width:1.31651;fill:#808080;stroke:#808080;stroke-opacity:1"
   id="path863"
   d="M 137.3,139.8 H 43.7 c -1.8,0 -3.2,-1.4 -3.2,-3.3 v -2.3 c 0,-1.8 1.4,-3.3 3.2,-3.3 h 93.5 c 1.8,0 3.2,1.4 3.2,3.3 v 2.3 c 0.2,1.9 -1.4,3.3 -3.1,3.3 z"
   class="st3" />
</g>
</svg>
